<svg width="1500" height="297" viewBox="0 0 1500 297" fill="none" xmlns="http://www.w3.org/2000/svg">
<path d="M110.746 80.9161C102.744 80.9161 94.9219 78.5433 88.2686 74.0977C81.6153 69.6521 76.4297 63.3335 73.3675 55.9407C70.3054 48.548 69.5042 40.4132 71.0653 32.5651C72.6263 24.717 76.4796 17.5081 82.1378 11.8499C87.7959 6.19175 95.0049 2.33849 102.853 0.777406C110.701 -0.783678 118.836 0.017538 126.229 3.07971C133.621 6.14189 139.94 11.3275 144.386 17.9808C148.831 24.6341 151.204 32.4562 151.204 40.4581C151.195 51.1854 146.929 61.4707 139.344 69.056C131.759 76.6414 121.473 80.9069 110.746 80.9161V80.9161Z" fill="#FFC700"/>
<path d="M40.4581 151.552C62.8024 151.552 80.9161 133.438 80.9161 111.094C80.9161 88.7494 62.8024 70.6357 40.4581 70.6357C18.1137 70.6357 0 88.7494 0 111.094C0 133.438 18.1137 151.552 40.4581 151.552Z" fill="#FFC700"/>
<path d="M110.746 225.534C133.09 225.534 151.204 207.42 151.204 185.076C151.204 162.731 133.09 144.618 110.746 144.618C88.4015 144.618 70.2878 162.731 70.2878 185.076C70.2878 207.42 88.4015 225.534 110.746 225.534Z" fill="#3A7DFF"/>
<path d="M181.765 296.553C204.11 296.553 222.223 278.439 222.223 256.095C222.223 233.75 204.11 215.637 181.765 215.637C159.421 215.637 141.307 233.75 141.307 256.095C141.307 278.439 159.421 296.553 181.765 296.553Z" fill="#3A7DFF"/>
<path d="M320.152 122.335C309.751 122.335 301.589 119.41 295.666 113.559C289.816 107.709 286.891 99.258 286.891 88.207V45.4118H300.975V87.6653C300.975 95.466 302.636 101.136 305.959 104.675C309.354 108.214 314.121 109.984 320.26 109.984C326.399 109.984 331.13 108.214 334.453 104.675C337.775 101.136 339.437 95.466 339.437 87.6653V45.4118H353.304V88.207C353.304 99.258 350.343 107.709 344.42 113.559C338.57 119.41 330.48 122.335 320.152 122.335ZM404.557 62.7466C409.18 62.7466 413.297 63.6494 416.908 65.4551C420.592 67.2608 423.481 70.0416 425.576 73.7975C427.67 77.4811 428.718 82.2482 428.718 88.0987V121.251H415.175V89.8322C415.175 84.704 413.947 80.8759 411.491 78.3479C409.108 75.8199 405.749 74.5559 401.415 74.5559C398.237 74.5559 395.42 75.206 392.965 76.5061C390.509 77.8062 388.595 79.7563 387.222 82.3566C385.922 84.8845 385.272 88.0987 385.272 91.999V121.251H371.729V63.3966H384.622V78.9979L382.347 74.2309C384.369 70.5472 387.295 67.7303 391.123 65.7802C395.023 63.7578 399.501 62.7466 404.557 62.7466ZM445.897 121.251V63.3966H459.44V121.251H445.897ZM452.723 53.8625C450.195 53.8625 448.1 53.068 446.439 51.479C444.85 49.89 444.056 47.9759 444.056 45.7368C444.056 43.4255 444.85 41.5115 446.439 39.9947C448.1 38.4057 450.195 37.6112 452.723 37.6112C455.251 37.6112 457.309 38.3695 458.898 39.8863C460.56 41.3309 461.39 43.1727 461.39 45.4118C461.39 47.7953 460.596 49.8177 459.007 51.479C457.418 53.068 455.323 53.8625 452.723 53.8625ZM492.6 121.251L467.789 63.3966H481.874L503.217 114.426H496.283L518.385 63.3966H531.386L506.576 121.251H492.6ZM565.457 122.01C559.029 122.01 553.395 120.746 548.556 118.218C543.789 115.618 540.069 112.078 537.397 107.6C534.797 103.122 533.496 98.0301 533.496 92.3241C533.496 86.5458 534.76 81.4537 537.288 77.0478C539.889 72.5696 543.428 69.0666 547.906 66.5386C552.456 64.0106 557.621 62.7466 563.399 62.7466C569.033 62.7466 574.053 63.9745 578.459 66.4302C582.864 68.886 586.331 72.3529 588.859 76.8311C591.387 81.3092 592.651 86.5819 592.651 92.6491C592.651 93.2269 592.615 93.877 592.543 94.5992C592.543 95.3215 592.507 96.0077 592.435 96.6577H544.222V87.6653H585.284L579.975 90.4822C580.048 87.1597 579.361 84.2345 577.917 81.7065C576.472 79.1785 574.486 77.1922 571.958 75.7477C569.502 74.3031 566.649 73.5808 563.399 73.5808C560.076 73.5808 557.151 74.3031 554.623 75.7477C552.167 77.1922 550.217 79.2146 548.773 81.8148C547.4 84.3428 546.714 87.3403 546.714 90.8073V92.9741C546.714 96.4411 547.509 99.5108 549.098 102.183C550.687 104.856 552.926 106.914 555.815 108.359C558.704 109.803 562.027 110.526 565.782 110.526C569.033 110.526 571.958 110.02 574.558 109.009C577.158 107.998 579.47 106.409 581.492 104.242L588.751 112.584C586.151 115.618 582.864 117.965 578.892 119.626C574.992 121.215 570.513 122.01 565.457 122.01ZM605.66 121.251V63.3966H618.553V79.323L617.036 74.6642C618.769 70.7639 621.478 67.8026 625.162 65.7802C628.918 63.7578 633.576 62.7466 639.138 62.7466V75.6393C638.56 75.4949 638.018 75.4226 637.513 75.4226C637.007 75.3504 636.502 75.3143 635.996 75.3143C630.868 75.3143 626.787 76.8311 623.753 79.8647C620.72 82.826 619.203 87.2681 619.203 93.1908V121.251H605.66ZM669.032 122.01C664.193 122.01 659.534 121.396 655.056 120.168C650.65 118.868 647.147 117.315 644.546 115.509L649.747 105.217C652.347 106.878 655.453 108.25 659.064 109.334C662.676 110.417 666.287 110.959 669.899 110.959C674.16 110.959 677.23 110.381 679.108 109.225C681.058 108.07 682.033 106.517 682.033 104.567C682.033 102.978 681.383 101.786 680.083 100.991C678.783 100.125 677.085 99.4746 674.991 99.0413C672.896 98.6079 670.549 98.2107 667.948 97.8495C665.42 97.4884 662.856 97.0189 660.256 96.4411C657.728 95.791 655.417 94.8882 653.322 93.7325C651.228 92.5046 649.53 90.8795 648.23 88.8571C646.93 86.8347 646.28 84.1623 646.28 80.8398C646.28 77.1561 647.327 73.9781 649.422 71.3056C651.517 68.561 654.442 66.4663 658.198 65.0218C662.026 63.505 666.54 62.7466 671.74 62.7466C675.641 62.7466 679.577 63.18 683.55 64.0467C687.522 64.9134 690.809 66.1413 693.409 67.7303L688.208 78.0229C685.464 76.3616 682.683 75.2421 679.866 74.6642C677.121 74.0142 674.377 73.6892 671.632 73.6892C667.515 73.6892 664.445 74.3031 662.423 75.531C660.473 76.7589 659.498 78.3118 659.498 80.1897C659.498 81.9232 660.148 83.2233 661.448 84.09C662.748 84.9568 664.445 85.6429 666.54 86.1485C668.635 86.6541 670.946 87.0875 673.474 87.4486C676.074 87.7376 678.638 88.207 681.166 88.8571C683.694 89.5071 686.006 90.41 688.1 91.5657C690.267 92.6491 692 94.202 693.301 96.2244C694.601 98.2468 695.251 100.883 695.251 104.133C695.251 107.745 694.167 110.887 692 113.559C689.906 116.232 686.908 118.326 683.008 119.843C679.108 121.288 674.449 122.01 669.032 122.01ZM706.914 121.251V63.3966H720.456V121.251H706.914ZM713.739 53.8625C711.211 53.8625 709.117 53.068 707.455 51.479C705.866 49.89 705.072 47.9759 705.072 45.7368C705.072 43.4255 705.866 41.5115 707.455 39.9947C709.117 38.4057 711.211 37.6112 713.739 37.6112C716.267 37.6112 718.326 38.3695 719.915 39.8863C721.576 41.3309 722.407 43.1727 722.407 45.4118C722.407 47.7953 721.612 49.8177 720.023 51.479C718.434 53.068 716.339 53.8625 713.739 53.8625ZM760.008 122.01C753.652 122.01 748.741 120.385 745.274 117.134C741.807 113.812 740.073 108.937 740.073 102.508V50.6122H753.616V102.183C753.616 104.928 754.302 107.059 755.674 108.575C757.119 110.092 759.105 110.851 761.633 110.851C764.667 110.851 767.195 110.056 769.217 108.467L773.009 118.11C771.42 119.41 769.47 120.385 767.159 121.035C764.847 121.685 762.464 122.01 760.008 122.01ZM730.539 74.6642V63.83H769.109V74.6642H730.539ZM787.859 143.028C785.042 143.028 782.225 142.559 779.408 141.62C776.591 140.681 774.244 139.381 772.366 137.72L777.783 127.752C779.155 128.98 780.708 129.955 782.442 130.677C784.175 131.4 785.945 131.761 787.751 131.761C790.206 131.761 792.193 131.147 793.709 129.919C795.226 128.691 796.635 126.632 797.935 123.743L801.293 116.159L802.377 114.534L824.262 63.3966H837.263L810.177 125.91C808.372 130.244 806.349 133.675 804.11 136.203C801.943 138.731 799.488 140.5 796.743 141.511C794.071 142.523 791.109 143.028 787.859 143.028ZM799.777 123.31L773.666 63.3966H787.751L808.986 113.342L799.777 123.31ZM901.672 122.01C895.749 122.01 890.476 120.746 885.854 118.218C881.231 115.618 877.584 112.078 874.911 107.6C872.239 103.122 870.902 98.0301 870.902 92.3241C870.902 86.5458 872.239 81.4537 874.911 77.0478C877.584 72.5696 881.231 69.0666 885.854 66.5386C890.476 64.0106 895.749 62.7466 901.672 62.7466C907.667 62.7466 912.975 64.0106 917.598 66.5386C922.293 69.0666 925.94 72.5335 928.541 76.9394C931.213 81.3454 932.549 86.4736 932.549 92.3241C932.549 98.0301 931.213 103.122 928.541 107.6C925.94 112.078 922.293 115.618 917.598 118.218C912.975 120.746 907.667 122.01 901.672 122.01ZM901.672 110.417C904.994 110.417 907.956 109.695 910.556 108.25C913.156 106.806 915.178 104.711 916.623 101.967C918.14 99.2218 918.898 96.0077 918.898 92.3241C918.898 88.5682 918.14 85.354 916.623 82.6816C915.178 79.9369 913.156 77.8423 910.556 76.3977C907.956 74.9532 905.03 74.2309 901.78 74.2309C898.458 74.2309 895.496 74.9532 892.896 76.3977C890.368 77.8423 888.346 79.9369 886.829 82.6816C885.312 85.354 884.554 88.5682 884.554 92.3241C884.554 96.0077 885.312 99.2218 886.829 101.967C888.346 104.711 890.368 106.806 892.896 108.25C895.496 109.695 898.421 110.417 901.672 110.417ZM947.341 121.251V60.1464C947.341 54.0792 949.111 49.2399 952.65 45.6285C956.262 41.9448 961.39 40.103 968.035 40.103C970.418 40.103 972.657 40.3558 974.752 40.8614C976.919 41.367 978.725 42.1615 980.169 43.245L976.486 53.4291C975.474 52.6346 974.319 52.0568 973.019 51.6957C971.718 51.2623 970.382 51.0456 969.01 51.0456C966.193 51.0456 964.062 51.8401 962.618 53.4291C961.173 54.9459 960.451 57.2572 960.451 60.363V66.8636L960.884 72.9308V121.251H947.341ZM937.807 74.6642V63.83H976.377V74.6642H937.807ZM1034.61 121.251L1009.48 45.4118H1024.1L1046.53 113.993H1039.27L1062.56 45.4118H1075.57L1098.21 113.993H1091.17L1114.14 45.4118H1127.57L1102.43 121.251H1087.48L1066.79 59.388H1070.69L1049.67 121.251H1034.61ZM1169.05 121.251V109.55L1168.29 107.059V86.5819C1168.29 82.6094 1167.1 79.5396 1164.72 77.3728C1162.33 75.1337 1158.72 74.0142 1153.88 74.0142C1150.63 74.0142 1147.42 74.5198 1144.24 75.531C1141.13 76.5422 1138.5 77.9506 1136.33 79.7563L1131.02 69.8972C1134.13 67.5136 1137.81 65.7441 1142.07 64.5884C1146.41 63.3605 1150.89 62.7466 1155.51 62.7466C1163.89 62.7466 1170.35 64.769 1174.9 68.8138C1179.52 72.7863 1181.83 78.9618 1181.83 87.3403V121.251H1169.05ZM1150.85 122.01C1146.52 122.01 1142.72 121.288 1139.47 119.843C1136.22 118.326 1133.69 116.268 1131.89 113.667C1130.16 110.995 1129.29 107.998 1129.29 104.675C1129.29 101.425 1130.05 98.4996 1131.56 95.8993C1133.15 93.2991 1135.72 91.2406 1139.26 89.7238C1142.8 88.207 1147.49 87.4486 1153.34 87.4486H1170.13V96.4411H1154.32C1149.69 96.4411 1146.59 97.1995 1145 98.7163C1143.41 100.161 1142.62 101.967 1142.62 104.133C1142.62 106.589 1143.59 108.539 1145.54 109.984C1147.49 111.428 1150.2 112.151 1153.67 112.151C1156.99 112.151 1159.95 111.392 1162.55 109.876C1165.22 108.359 1167.14 106.12 1168.29 103.158L1170.57 111.284C1169.27 114.679 1166.92 117.315 1163.53 119.193C1160.2 121.071 1155.98 122.01 1150.85 122.01ZM1199.22 121.251V63.3966H1212.11V79.323L1210.59 74.6642C1212.32 70.7639 1215.03 67.8026 1218.72 65.7802C1222.47 63.7578 1227.13 62.7466 1232.69 62.7466V75.6393C1232.12 75.4949 1231.57 75.4226 1231.07 75.4226C1230.56 75.3504 1230.06 75.3143 1229.55 75.3143C1224.42 75.3143 1220.34 76.8311 1217.31 79.8647C1214.28 82.826 1212.76 87.2681 1212.76 93.1908V121.251H1199.22ZM1259.08 121.251L1237.85 63.3966H1250.63L1268.83 114.426H1262.77L1281.83 63.3966H1293.21L1311.74 114.426H1305.78L1324.52 63.3966H1336.55L1315.2 121.251H1302.2L1285.3 76.0727H1289.31L1272.08 121.251H1259.08ZM1345.86 121.251V63.3966H1359.4V121.251H1345.86ZM1352.68 53.8625C1350.16 53.8625 1348.06 53.068 1346.4 51.479C1344.81 49.89 1344.02 47.9759 1344.02 45.7368C1344.02 43.4255 1344.81 41.5115 1346.4 39.9947C1348.06 38.4057 1350.16 37.6112 1352.68 37.6112C1355.21 37.6112 1357.27 38.3695 1358.86 39.8863C1360.52 41.3309 1361.35 43.1727 1361.35 45.4118C1361.35 47.7953 1360.56 49.8177 1358.97 51.479C1357.38 53.068 1355.28 53.8625 1352.68 53.8625ZM1403.72 122.01C1397.65 122.01 1392.24 120.746 1387.47 118.218C1382.77 115.618 1379.09 112.078 1376.42 107.6C1373.75 103.122 1372.41 98.0301 1372.41 92.3241C1372.41 86.5458 1373.75 81.4537 1376.42 77.0478C1379.09 72.5696 1382.77 69.0666 1387.47 66.5386C1392.24 64.0106 1397.65 62.7466 1403.72 62.7466C1409.35 62.7466 1414.3 63.9022 1418.56 66.2135C1422.9 68.4526 1426.18 71.7751 1428.42 76.181L1418.02 82.2482C1416.29 79.5035 1414.16 77.4811 1411.63 76.181C1409.17 74.8809 1406.5 74.2309 1403.61 74.2309C1400.29 74.2309 1397.29 74.9532 1394.62 76.3977C1391.95 77.8423 1389.85 79.9369 1388.34 82.6816C1386.82 85.354 1386.06 88.5682 1386.06 92.3241C1386.06 96.0799 1386.82 99.3302 1388.34 102.075C1389.85 104.747 1391.95 106.806 1394.62 108.25C1397.29 109.695 1400.29 110.417 1403.61 110.417C1406.5 110.417 1409.17 109.767 1411.63 108.467C1414.16 107.167 1416.29 105.145 1418.02 102.4L1428.42 108.467C1426.18 112.801 1422.9 116.159 1418.56 118.543C1414.3 120.854 1409.35 122.01 1403.72 122.01ZM1450.65 108.359L1450.98 91.349L1481.2 63.3966H1497.45L1471.78 89.1821L1464.63 95.141L1450.65 108.359ZM1439.6 121.251V40.8614H1453.14V121.251H1439.6ZM1483.26 121.251L1462.14 95.141L1470.69 84.3067L1499.73 121.251H1483.26ZM322.644 254.552C316.793 254.552 311.34 253.613 306.284 251.735C301.3 249.785 296.966 247.04 293.283 243.501C289.599 239.961 286.71 235.808 284.615 231.041C282.593 226.274 281.582 221.038 281.582 215.332C281.582 209.626 282.593 204.389 284.615 199.622C286.71 194.855 289.599 190.702 293.283 187.163C297.039 183.623 301.408 180.915 306.392 179.037C311.376 177.087 316.829 176.112 322.752 176.112C329.325 176.112 335.247 177.267 340.52 179.579C345.865 181.818 350.343 185.14 353.955 189.546L342.687 199.947C340.087 196.986 337.198 194.783 334.02 193.338C330.841 191.821 327.375 191.063 323.619 191.063C320.079 191.063 316.829 191.641 313.868 192.796C310.906 193.952 308.342 195.613 306.176 197.78C304.009 199.947 302.311 202.511 301.083 205.472C299.928 208.434 299.35 211.72 299.35 215.332C299.35 218.943 299.928 222.229 301.083 225.191C302.311 228.152 304.009 230.716 306.176 232.883C308.342 235.05 310.906 236.711 313.868 237.867C316.829 239.023 320.079 239.6 323.619 239.6C327.375 239.6 330.841 238.878 334.02 237.433C337.198 235.917 340.087 233.641 342.687 230.608L353.955 241.009C350.343 245.415 345.865 248.773 340.52 251.085C335.247 253.396 329.289 254.552 322.644 254.552ZM390.341 254.118C384.129 254.118 378.604 252.818 373.764 250.218C368.997 247.618 365.205 244.078 362.388 239.6C359.644 235.05 358.271 229.886 358.271 224.107C358.271 218.257 359.644 213.093 362.388 208.614C365.205 204.064 368.997 200.525 373.764 197.997C378.604 195.397 384.129 194.097 390.341 194.097C396.48 194.097 401.969 195.397 406.809 197.997C411.648 200.525 415.44 204.028 418.185 208.506C420.929 212.984 422.302 218.185 422.302 224.107C422.302 229.886 420.929 235.05 418.185 239.6C415.44 244.078 411.648 247.618 406.809 250.218C401.969 252.818 396.48 254.118 390.341 254.118ZM390.341 240.25C393.158 240.25 395.686 239.6 397.925 238.3C400.164 237 401.933 235.158 403.233 232.775C404.533 230.319 405.184 227.43 405.184 224.107C405.184 220.713 404.533 217.824 403.233 215.44C401.933 213.056 400.164 211.215 397.925 209.915C395.686 208.614 393.158 207.964 390.341 207.964C387.524 207.964 384.996 208.614 382.757 209.915C380.518 211.215 378.712 213.056 377.34 215.44C376.039 217.824 375.389 220.713 375.389 224.107C375.389 227.43 376.039 230.319 377.34 232.775C378.712 235.158 380.518 237 382.757 238.3C384.996 239.6 387.524 240.25 390.341 240.25ZM508.247 194.097C512.869 194.097 516.95 195.035 520.489 196.913C524.101 198.719 526.918 201.536 528.94 205.364C531.035 209.12 532.082 213.959 532.082 219.882V253.251H515.181V222.482C515.181 217.787 514.206 214.32 512.255 212.081C510.305 209.842 507.561 208.723 504.021 208.723C501.566 208.723 499.363 209.301 497.412 210.456C495.462 211.54 493.946 213.201 492.862 215.44C491.779 217.679 491.237 220.532 491.237 223.999V253.251H474.336V222.482C474.336 217.787 473.36 214.32 471.41 212.081C469.532 209.842 466.824 208.723 463.285 208.723C460.829 208.723 458.626 209.301 456.676 210.456C454.726 211.54 453.209 213.201 452.125 215.44C451.042 217.679 450.5 220.532 450.5 223.999V253.251H433.599V194.963H449.742V210.89L446.708 206.231C448.731 202.258 451.584 199.261 455.267 197.238C459.023 195.144 463.285 194.097 468.052 194.097C473.397 194.097 478.055 195.469 482.028 198.214C486.073 200.886 488.745 205.003 490.045 210.565L484.086 208.939C486.037 204.389 489.142 200.778 493.404 198.105C497.738 195.433 502.685 194.097 508.247 194.097ZM581.684 254.118C576.773 254.118 572.475 253.035 568.792 250.868C565.108 248.701 562.219 245.415 560.124 241.009C558.102 236.531 557.091 230.897 557.091 224.107C557.091 217.246 558.066 211.612 560.016 207.206C561.966 202.8 564.783 199.514 568.466 197.347C572.15 195.18 576.556 194.097 581.684 194.097C587.174 194.097 592.085 195.361 596.419 197.889C600.825 200.344 604.292 203.811 606.82 208.289C609.42 212.768 610.72 218.04 610.72 224.107C610.72 230.247 609.42 235.556 606.82 240.034C604.292 244.512 600.825 247.979 596.419 250.435C592.085 252.89 587.174 254.118 581.684 254.118ZM547.231 274.27V194.963H563.374V206.881L563.049 224.216L564.133 241.442V274.27H547.231ZM578.759 240.25C581.576 240.25 584.068 239.6 586.235 238.3C588.474 237 590.243 235.158 591.543 232.775C592.916 230.319 593.602 227.43 593.602 224.107C593.602 220.713 592.916 217.824 591.543 215.44C590.243 213.056 588.474 211.215 586.235 209.915C584.068 208.614 581.576 207.964 578.759 207.964C575.942 207.964 573.414 208.614 571.175 209.915C568.936 211.215 567.166 213.056 565.866 215.44C564.566 217.824 563.916 220.713 563.916 224.107C563.916 227.43 564.566 230.319 565.866 232.775C567.166 235.158 568.936 237 571.175 238.3C573.414 239.6 575.942 240.25 578.759 240.25ZM646.628 254.118C641.789 254.118 637.455 253.179 633.627 251.301C629.871 249.423 626.946 246.57 624.851 242.742C622.756 238.842 621.709 233.894 621.709 227.899V194.963H638.611V225.407C638.611 230.247 639.622 233.822 641.644 236.133C643.739 238.372 646.664 239.492 650.42 239.492C653.02 239.492 655.331 238.95 657.354 237.867C659.376 236.711 660.965 234.978 662.121 232.666C663.276 230.283 663.854 227.322 663.854 223.782V194.963H680.756V253.251H664.721V237.217L667.646 241.876C665.696 245.92 662.807 248.99 658.979 251.085C655.223 253.107 651.106 254.118 646.628 254.118ZM720.249 254.118C713.387 254.118 708.042 252.385 704.214 248.918C700.386 245.379 698.472 240.142 698.472 233.208V182.071H715.374V232.991C715.374 235.447 716.024 237.361 717.324 238.734C718.624 240.034 720.393 240.684 722.633 240.684C725.305 240.684 727.58 239.961 729.458 238.517L734.009 250.435C732.275 251.662 730.18 252.601 727.725 253.251C725.341 253.829 722.849 254.118 720.249 254.118ZM689.48 209.264V196.263H729.892V209.264H689.48ZM743.496 253.251V194.963H760.398V253.251H743.496ZM751.947 186.838C748.841 186.838 746.313 185.935 744.363 184.129C742.413 182.323 741.438 180.084 741.438 177.412C741.438 174.739 742.413 172.5 744.363 170.695C746.313 168.889 748.841 167.986 751.947 167.986C755.053 167.986 757.581 168.853 759.531 170.586C761.481 172.247 762.456 174.414 762.456 177.087C762.456 179.904 761.481 182.251 759.531 184.129C757.653 185.935 755.125 186.838 751.947 186.838ZM811.511 194.097C816.134 194.097 820.251 195.035 823.862 196.913C827.546 198.719 830.435 201.536 832.53 205.364C834.624 209.12 835.672 213.959 835.672 219.882V253.251H818.77V222.482C818.77 217.787 817.723 214.32 815.628 212.081C813.606 209.842 810.717 208.723 806.961 208.723C804.289 208.723 801.869 209.301 799.702 210.456C797.607 211.54 795.946 213.237 794.718 215.548C793.563 217.86 792.985 220.821 792.985 224.432V253.251H776.083V194.963H792.226V211.106L789.193 206.231C791.288 202.331 794.285 199.333 798.185 197.238C802.086 195.144 806.528 194.097 811.511 194.097ZM878.826 275.137C873.337 275.137 868.028 274.45 862.9 273.078C857.844 271.778 853.618 269.792 850.224 267.119L856.941 254.985C859.396 257.007 862.502 258.596 866.258 259.752C870.086 260.98 873.842 261.594 877.526 261.594C883.521 261.594 887.854 260.258 890.527 257.585C893.272 254.913 894.644 250.94 894.644 245.667V236.892L895.727 222.266L895.511 207.531V194.963H911.545V243.501C911.545 254.335 908.728 262.316 903.095 267.444C897.461 272.573 889.371 275.137 878.826 275.137ZM876.226 250.435C870.809 250.435 865.897 249.279 861.491 246.968C857.157 244.584 853.654 241.298 850.982 237.108C848.382 232.847 847.082 227.899 847.082 222.266C847.082 216.56 848.382 211.612 850.982 207.423C853.654 203.161 857.157 199.875 861.491 197.563C865.897 195.252 870.809 194.097 876.226 194.097C881.137 194.097 885.471 195.108 889.227 197.13C892.983 199.08 895.908 202.15 898.002 206.339C900.097 210.456 901.144 215.765 901.144 222.266C901.144 228.694 900.097 234.003 898.002 238.192C895.908 242.309 892.983 245.379 889.227 247.401C885.471 249.423 881.137 250.435 876.226 250.435ZM879.584 236.567C882.546 236.567 885.182 235.989 887.493 234.833C889.805 233.605 891.61 231.908 892.91 229.741C894.211 227.574 894.861 225.082 894.861 222.266C894.861 219.376 894.211 216.885 892.91 214.79C891.61 212.623 889.805 210.962 887.493 209.806C885.182 208.578 882.546 207.964 879.584 207.964C876.623 207.964 873.987 208.578 871.675 209.806C869.364 210.962 867.522 212.623 866.15 214.79C864.85 216.885 864.2 219.376 864.2 222.266C864.2 225.082 864.85 227.574 866.15 229.741C867.522 231.908 869.364 233.605 871.675 234.833C873.987 235.989 876.623 236.567 879.584 236.567ZM984.069 254.552C978.002 254.552 972.188 253.757 966.626 252.168C961.065 250.507 956.587 248.376 953.192 245.776L959.151 232.558C962.401 234.869 966.229 236.783 970.635 238.3C975.113 239.745 979.627 240.467 984.178 240.467C987.645 240.467 990.426 240.142 992.52 239.492C994.687 238.77 996.276 237.795 997.287 236.567C998.298 235.339 998.804 233.93 998.804 232.341C998.804 230.319 998.01 228.73 996.421 227.574C994.831 226.346 992.737 225.371 990.137 224.649C987.536 223.855 984.647 223.132 981.469 222.482C978.363 221.76 975.222 220.893 972.043 219.882C968.938 218.871 966.085 217.571 963.484 215.982C960.884 214.393 958.753 212.298 957.092 209.698C955.503 207.098 954.709 203.775 954.709 199.73C954.709 195.397 955.864 191.46 958.176 187.921C960.559 184.31 964.098 181.457 968.793 179.362C973.56 177.195 979.519 176.112 986.67 176.112C991.437 176.112 996.132 176.69 1000.75 177.845C1005.38 178.929 1009.46 180.59 1013 182.829L1007.58 196.155C1004.04 194.133 1000.5 192.652 996.962 191.713C993.423 190.702 989.956 190.196 986.561 190.196C983.167 190.196 980.386 190.593 978.219 191.388C976.052 192.182 974.499 193.23 973.56 194.53C972.621 195.758 972.152 197.202 972.152 198.864C972.152 200.814 972.946 202.403 974.535 203.631C976.124 204.786 978.219 205.725 980.819 206.448C983.419 207.17 986.272 207.892 989.378 208.614C992.556 209.337 995.698 210.167 998.804 211.106C1001.98 212.045 1004.87 213.309 1007.47 214.898C1010.07 216.487 1012.17 218.582 1013.76 221.182C1015.42 223.782 1016.25 227.069 1016.25 231.041C1016.25 235.303 1015.06 239.203 1012.67 242.742C1010.29 246.281 1006.71 249.134 1001.95 251.301C997.251 253.468 991.292 254.552 984.069 254.552ZM1054.78 254.118C1048.57 254.118 1043.05 252.818 1038.21 250.218C1033.44 247.618 1029.65 244.078 1026.83 239.6C1024.09 235.05 1022.71 229.886 1022.71 224.107C1022.71 218.257 1024.09 213.093 1026.83 208.614C1029.65 204.064 1033.44 200.525 1038.21 197.997C1043.05 195.397 1048.57 194.097 1054.78 194.097C1060.92 194.097 1066.41 195.397 1071.25 197.997C1076.09 200.525 1079.88 204.028 1082.63 208.506C1085.37 212.984 1086.75 218.185 1086.75 224.107C1086.75 229.886 1085.37 235.05 1082.63 239.6C1079.88 244.078 1076.09 247.618 1071.25 250.218C1066.41 252.818 1060.92 254.118 1054.78 254.118ZM1054.78 240.25C1057.6 240.25 1060.13 239.6 1062.37 238.3C1064.61 237 1066.38 235.158 1067.68 232.775C1068.98 230.319 1069.63 227.43 1069.63 224.107C1069.63 220.713 1068.98 217.824 1067.68 215.44C1066.38 213.056 1064.61 211.215 1062.37 209.915C1060.13 208.614 1057.6 207.964 1054.78 207.964C1051.97 207.964 1049.44 208.614 1047.2 209.915C1044.96 211.215 1043.16 213.056 1041.78 215.44C1040.48 217.824 1039.83 220.713 1039.83 224.107C1039.83 227.43 1040.48 230.319 1041.78 232.775C1043.16 235.158 1044.96 237 1047.2 238.3C1049.44 239.6 1051.97 240.25 1054.78 240.25ZM1126.21 254.118C1119.93 254.118 1114.33 252.854 1109.42 250.326C1104.51 247.726 1100.64 244.151 1097.83 239.6C1095.08 235.05 1093.71 229.886 1093.71 224.107C1093.71 218.257 1095.08 213.093 1097.83 208.614C1100.64 204.064 1104.51 200.525 1109.42 197.997C1114.33 195.397 1119.93 194.097 1126.21 194.097C1132.35 194.097 1137.7 195.397 1142.25 197.997C1146.8 200.525 1150.15 204.172 1152.32 208.939L1139.21 215.982C1137.7 213.237 1135.78 211.215 1133.47 209.915C1131.23 208.614 1128.78 207.964 1126.1 207.964C1123.21 207.964 1120.61 208.614 1118.3 209.915C1115.99 211.215 1114.15 213.056 1112.78 215.44C1111.48 217.824 1110.83 220.713 1110.83 224.107C1110.83 227.502 1111.48 230.391 1112.78 232.775C1114.15 235.158 1115.99 237 1118.3 238.3C1120.61 239.6 1123.21 240.25 1126.1 240.25C1128.78 240.25 1131.23 239.636 1133.47 238.409C1135.78 237.108 1137.7 235.05 1139.21 232.233L1152.32 239.384C1150.15 244.078 1146.8 247.726 1142.25 250.326C1137.7 252.854 1132.35 254.118 1126.21 254.118ZM1161.74 253.251V194.963H1178.64V253.251H1161.74ZM1170.19 186.838C1167.08 186.838 1164.55 185.935 1162.6 184.129C1160.65 182.323 1159.68 180.084 1159.68 177.412C1159.68 174.739 1160.65 172.5 1162.6 170.695C1164.55 168.889 1167.08 167.986 1170.19 167.986C1173.29 167.986 1175.82 168.853 1177.77 170.586C1179.72 172.247 1180.7 174.414 1180.7 177.087C1180.7 179.904 1179.72 182.251 1177.77 184.129C1175.89 185.935 1173.36 186.838 1170.19 186.838ZM1223.25 254.118C1216.61 254.118 1210.76 252.818 1205.7 250.218C1200.72 247.618 1196.85 244.078 1194.11 239.6C1191.36 235.05 1189.99 229.886 1189.99 224.107C1189.99 218.257 1191.33 213.093 1194 208.614C1196.74 204.064 1200.46 200.525 1205.16 197.997C1209.85 195.397 1215.16 194.097 1221.08 194.097C1226.79 194.097 1231.92 195.324 1236.47 197.78C1241.09 200.164 1244.74 203.631 1247.41 208.181C1250.08 212.659 1251.42 218.04 1251.42 224.324C1251.42 224.974 1251.38 225.733 1251.31 226.599C1251.24 227.394 1251.17 228.152 1251.09 228.874H1203.75V219.015H1242.21L1235.71 221.941C1235.71 218.907 1235.1 216.271 1233.87 214.032C1232.64 211.792 1230.94 210.059 1228.78 208.831C1226.61 207.531 1224.08 206.881 1221.19 206.881C1218.3 206.881 1215.74 207.531 1213.5 208.831C1211.33 210.059 1209.64 211.829 1208.41 214.14C1207.18 216.379 1206.57 219.051 1206.57 222.157V224.757C1206.57 227.935 1207.25 230.752 1208.62 233.208C1210.07 235.592 1212.06 237.433 1214.58 238.734C1217.18 239.961 1220.22 240.575 1223.68 240.575C1226.79 240.575 1229.5 240.106 1231.81 239.167C1234.19 238.228 1236.36 236.82 1238.31 234.942L1247.3 244.692C1244.63 247.726 1241.27 250.073 1237.23 251.735C1233.18 253.324 1228.52 254.118 1223.25 254.118ZM1286.51 254.118C1279.65 254.118 1274.3 252.385 1270.47 248.918C1266.64 245.379 1264.73 240.142 1264.73 233.208V182.071H1281.63V232.991C1281.63 235.447 1282.28 237.361 1283.58 238.734C1284.88 240.034 1286.65 240.684 1288.89 240.684C1291.56 240.684 1293.84 239.961 1295.72 238.517L1300.27 250.435C1298.53 251.662 1296.44 252.601 1293.98 253.251C1291.6 253.829 1289.11 254.118 1286.51 254.118ZM1255.74 209.264V196.263H1296.15V209.264H1255.74ZM1316.06 275.137C1313.03 275.137 1310.03 274.667 1307.07 273.728C1304.11 272.789 1301.69 271.489 1299.81 269.828L1305.99 257.802C1307.29 258.957 1308.77 259.86 1310.43 260.51C1312.16 261.16 1313.86 261.485 1315.52 261.485C1317.91 261.485 1319.78 260.908 1321.16 259.752C1322.6 258.669 1323.9 256.827 1325.06 254.227L1328.09 247.076L1329.39 245.234L1350.3 194.963H1366.55L1340.22 256.827C1338.35 261.522 1336.18 265.205 1333.72 267.878C1331.34 270.55 1328.67 272.428 1325.71 273.511C1322.82 274.595 1319.6 275.137 1316.06 275.137ZM1326.03 255.527L1300.03 194.963H1317.47L1337.62 243.717L1326.03 255.527Z" fill="white"/>
</svg>
